<?xml version="1.0" standalone="no"?>
<!DOCTYPE svg PUBLIC "-//W3C//DTD SVG 20010904//EN"
 "http://www.w3.org/TR/2001/REC-SVG-20010904/DTD/svg10.dtd">
<svg version="1.0" xmlns="http://www.w3.org/2000/svg"
 width="500.000000pt" height="500.000000pt" viewBox="0 0 500.000000 500.000000"
 preserveAspectRatio="xMidYMid meet">

<g transform="translate(0.000000,500.000000) scale(0.100000,-0.100000)"
fill="#000000" stroke="none">
<path d="M2205 4220 c-287 -52 -526 -156 -760 -331 -94 -70 -255 -227 -324
-316 -181 -233 -304 -519 -352 -818 -17 -107 -17 -397 0 -510 115 -757 714
-1357 1467 -1470 155 -23 397 -22 544 4 368 64 684 226 945 485 591 589 684
1509 220 2201 -259 388 -654 653 -1112 746 -158 32 -473 37 -628 9z m456 -11
c500 -51 940 -306 1237 -717 76 -106 191 -334 232 -460 64 -199 74 -274 74
-532 0 -206 -2 -248 -22 -337 -93 -424 -327 -794 -660 -1041 -778 -577 -1859
-405 -2430 386 -75 104 -189 331 -231 460 -60 184 -76 293 -76 532 0 249 17
355 86 557 259 752 1006 1232 1790 1152z"/>
<path d="M2514 4055 c-13 -11 -14 -14 -4 -13 13 3 15 -24 15 -191 0 -184 1
-194 20 -201 29 -10 55 0 59 24 3 11 7 100 10 197 4 129 3 178 -6 187 -17 17
-70 15 -94 -3z"/>
<path d="M2721 4049 c-21 -8 -22 -11 -9 -22 14 -11 13 -30 -13 -191 -32 -191
-30 -206 17 -206 13 0 27 8 32 18 16 31 66 382 56 391 -15 16 -58 21 -83 10z"/>
<path d="M1995 3967 c-97 -55 -116 -177 -26 -177 31 0 51 16 51 41 0 26 -19
33 -47 18 -20 -11 -26 -11 -33 1 -6 8 -10 18 -10 22 0 14 62 78 76 78 8 0 35
-68 75 -189 63 -193 67 -221 33 -255 -18 -19 -65 -21 -82 -4 -9 9 -13 7 -18
-5 -15 -41 26 -48 96 -16 60 27 88 55 100 101 10 34 5 56 -50 223 l-61 185
-32 0 c-18 0 -50 -10 -72 -23z"/>
<path d="M2335 3916 c-70 -31 -106 -108 -86 -183 28 -102 153 -125 226 -43 21
24 19 24 -27 1 -37 -19 -75 -7 -98 32 -11 17 -20 34 -20 37 0 3 25 23 56 44
58 42 76 78 53 102 -21 21 -70 26 -104 10z m55 -71 c0 -12 -50 -55 -64 -55
-13 0 -5 67 11 89 l16 24 19 -23 c10 -12 18 -28 18 -35z"/>
<path d="M2835 3880 c-3 -5 0 -10 9 -10 8 0 17 -13 21 -30 10 -44 8 -281 -2
-290 -14 -14 -81 -29 -102 -23 -11 3 -23 14 -26 24 -8 25 -35 25 -35 0 0 -45
72 -62 151 -36 73 25 168 119 210 209 33 70 34 99 6 104 -13 3 -17 -3 -17 -26
0 -30 -51 -142 -74 -161 -11 -9 -14 9 -19 97 -6 99 -8 109 -32 130 -27 23 -79
30 -90 12z"/>
<path d="M2355 3198 c-16 -6 -35 -15 -42 -20 -7 -6 -19 -6 -30 0 -35 18 -85
22 -130 10 -35 -8 -47 -8 -52 1 -6 9 -13 5 -24 -12 -12 -18 -29 -26 -64 -32
-144 -21 -255 -132 -345 -345 -78 -182 -136 -433 -163 -696 -6 -59 -5 -63 26
-98 39 -45 104 -79 184 -97 33 -7 74 -23 90 -35 88 -64 169 -77 294 -45 l83
20 40 -20 c159 -81 423 -83 595 -4 42 19 58 22 90 14 97 -22 225 -3 295 45 19
13 50 26 69 30 100 18 197 91 213 159 30 128 -290 923 -406 1008 -46 33 -156
64 -197 56 -23 -5 -40 0 -66 17 -46 32 -104 41 -164 26 -42 -10 -54 -9 -83 6
-40 21 -170 29 -213 12z m171 -55 c16 -6 19 -39 4 -48 -6 -4 -22 -24 -35 -45
-31 -49 -66 -56 -116 -23 -39 26 -55 71 -35 98 23 29 126 40 182 18z m-277
-14 c41 -15 41 -52 -1 -57 -30 -4 -112 43 -103 58 8 13 65 13 104 -1z m515
-12 c18 -13 17 -15 -9 -35 -15 -12 -38 -22 -50 -22 -12 0 -39 -11 -59 -25 -41
-28 -84 -33 -92 -10 -8 20 11 42 65 77 50 31 114 38 145 15z m-665 -38 l33
-12 -45 -46 c-85 -87 -152 -229 -220 -471 -45 -156 -116 -479 -119 -542 -2
-27 -5 -48 -7 -48 -27 0 -121 41 -149 66 l-36 31 17 134 c33 255 95 483 175
649 35 73 61 110 111 161 84 83 157 107 240 78z m914 -25 c29 -14 34 -20 22
-26 -8 -5 -15 -16 -15 -25 0 -10 -6 -13 -16 -9 -11 4 -8 -5 11 -29 39 -52 110
-206 149 -326 19 -57 57 -203 85 -324 71 -305 59 -277 100 -249 21 15 23 22
17 68 -9 67 -112 373 -170 506 -26 57 -75 159 -111 227 -64 123 -64 123 -42
138 12 8 24 11 28 7 17 -16 131 -245 177 -352 89 -208 182 -498 182 -567 0
-34 -57 -87 -113 -106 l-44 -15 -10 42 c-6 22 -35 147 -66 276 -106 457 -195
652 -335 741 l-43 27 28 11 c38 14 120 7 166 -15z m-695 -61 c23 -8 42 -17 42
-19 0 -3 -11 -20 -24 -37 -34 -44 -44 -74 -72 -212 -13 -66 -26 -130 -29 -141
-4 -17 -10 -20 -30 -16 -14 2 -25 9 -25 16 0 34 61 299 75 325 20 39 13 51
-30 51 -79 0 -173 -169 -246 -439 l-22 -84 26 -19 c15 -11 27 -25 27 -31 0
-19 -32 -47 -55 -47 -18 0 -24 -11 -43 -92 -34 -144 -52 -251 -46 -270 9 -30
58 -48 126 -47 115 2 112 -2 119 124 6 101 43 396 55 438 6 20 54 24 54 5 0
-7 -12 -89 -25 -183 -14 -93 -28 -224 -30 -290 l-5 -120 -38 -13 c-57 -20
-163 -26 -208 -12 -21 7 -54 23 -71 37 -31 22 -33 28 -33 81 0 92 115 566 177
731 54 144 131 260 187 280 27 11 90 4 144 -16z m519 -19 c72 -41 144 -160
203 -334 47 -142 152 -577 154 -640 l1 -55 -54 -27 c-45 -23 -68 -28 -127 -28
-39 0 -86 3 -103 6 l-31 7 0 69 c0 67 -39 352 -64 476 -8 34 -10 62 -5 62 4 0
20 -10 35 -23 22 -20 29 -38 44 -128 10 -57 26 -173 36 -256 l18 -152 28 -6
c33 -8 100 2 144 20 31 13 32 13 22 61 -5 27 -23 110 -41 184 l-33 135 -31 -3
c-44 -4 -73 13 -73 43 0 28 32 49 61 42 26 -7 25 3 -17 140 -63 209 -154 361
-225 375 l-25 5 13 -41 c14 -43 83 -331 83 -346 0 -15 -59 11 -64 28 -2 10
-19 80 -37 157 -20 87 -43 159 -61 192 l-29 51 28 10 c39 14 100 4 150 -24z
m-224 -42 c26 -25 65 -139 96 -284 l19 -87 -24 -16 c-28 -18 -26 -23 -50 90
-20 96 -62 235 -76 253 -6 7 -33 12 -62 12 -44 0 -56 -4 -79 -28 -24 -25 -32
-51 -58 -183 -16 -85 -33 -167 -37 -182 l-7 -29 -23 31 -22 31 32 162 c31 156
34 165 71 205 43 47 58 52 139 49 44 -2 63 -8 81 -24z m131 -449 c18 -61 66
-369 72 -465 6 -99 5 -116 -10 -131 -22 -22 -101 -45 -198 -58 -117 -16 -308
13 -363 56 -20 15 -20 15 5 35 l25 20 -24 0 -24 0 6 123 c6 137 36 377 47 391
5 4 11 -1 15 -13 3 -12 13 -21 21 -21 10 0 13 -6 10 -17 -8 -24 -33 -256 -42
-376 l-6 -97 33 -14 c97 -40 283 -44 398 -10 l54 16 -6 111 c-3 62 -20 184
-36 272 -28 147 -29 161 -14 177 20 23 30 23 37 1z"/>
<path d="M2397 3093 c-4 -3 3 -13 14 -21 18 -12 23 -13 30 -1 5 8 9 17 9 22 0
9 -44 9 -53 0z"/>
<path d="M1947 3006 c-57 -39 -93 -84 -141 -176 -74 -143 -138 -365 -171 -591
-22 -155 -21 -166 18 -189 l32 -20 23 97 c12 54 38 168 58 253 60 260 140 481
219 608 31 49 18 56 -38 18z"/>
<path d="M3864 2596 c-102 -44 -76 -196 33 -196 48 0 81 22 99 66 12 29 12 39
0 68 -24 57 -81 84 -132 62z"/>
<path d="M1081 2534 c-60 -50 -46 -140 26 -171 44 -18 77 -11 114 27 90 90
-43 226 -140 144z"/>
<path d="M3046 1197 c-26 -19 -16 -48 27 -76 20 -14 37 -32 37 -43 0 -21 -20
-24 -39 -5 -11 10 -13 9 -9 -3 6 -20 39 -24 62 -7 27 20 15 61 -24 77 -36 15
-54 35 -45 50 5 8 11 7 23 -2 13 -11 14 -11 11 1 -7 21 -22 23 -43 8z"/>
<path d="M1880 1180 c0 -11 7 -20 15 -20 8 0 15 5 15 10 0 6 -5 10 -11 10 -5
0 -7 5 -4 10 3 6 1 10 -4 10 -6 0 -11 -9 -11 -20z"/>
<path d="M1923 1194 c3 -6 -3 -29 -14 -53 -10 -24 -19 -49 -19 -57 0 -23 27
-16 34 9 5 20 11 23 35 19 26 -4 31 0 37 23 4 17 2 31 -7 40 -17 16 -75 32
-66 19z m48 -53 c-12 -22 -31 -28 -31 -10 0 23 22 51 32 41 7 -7 6 -17 -1 -31z"/>
<path d="M2921 1113 c23 -45 21 -86 -3 -91 -19 -4 -36 28 -44 83 -4 27 -3 28
5 8 6 -13 13 -23 16 -23 6 0 -3 40 -11 49 -10 11 -34 -26 -34 -53 0 -45 25
-76 60 -76 57 0 79 72 35 115 -35 36 -46 31 -24 -12z"/>
<path d="M2073 1129 c-18 -18 -16 -39 2 -39 8 0 15 5 15 10 0 6 -5 10 -11 10
-5 0 -7 5 -4 10 9 15 35 12 35 -4 0 -8 -7 -22 -16 -30 -8 -9 -11 -16 -6 -16 5
0 7 -12 4 -27 -5 -28 17 -53 47 -53 13 1 13 2 -1 11 -18 10 -24 40 -11 53 4 4
8 13 9 19 0 7 2 20 2 31 2 15 7 17 30 12 20 -5 23 -4 11 3 -28 18 -93 24 -106
10z"/>
<path d="M2279 1091 c9 -6 12 -26 10 -67 l-4 -59 32 -3 c42 -4 73 26 73 72 0
44 -29 66 -85 66 -26 0 -35 -3 -26 -9z m79 -44 c4 -40 -12 -77 -32 -77 -10 0
-12 12 -9 48 3 26 6 53 9 60 8 26 29 5 32 -31z"/>
<path d="M2662 1053 c19 -101 16 -96 46 -89 33 8 62 41 62 70 0 28 -27 66 -46
66 -13 0 -13 -3 0 -22 21 -29 21 -87 1 -95 -22 -8 -24 -4 -27 60 -3 50 -5 57
-24 57 -20 0 -21 -3 -12 -47z"/>
<path d="M2250 1071 c0 -12 6 -21 15 -21 8 0 15 3 15 6 0 3 -7 12 -15 20 -13
14 -15 13 -15 -5z"/>
<path d="M2482 1078 c-14 -14 -16 -48 -3 -48 15 0 22 18 9 22 -6 2 -8 10 -4
16 16 26 25 9 28 -50 2 -38 8 -63 16 -66 9 -3 12 15 12 67 0 67 -1 71 -23 71
-13 0 -28 -5 -35 -12z"/>
<path d="M2627 1083 c-13 -12 -7 -43 8 -43 8 0 15 5 15 10 0 6 -5 10 -11 10
-6 0 -9 7 -5 15 6 16 3 19 -7 8z"/>
</g>
</svg>
